<svg version="1.1" id="Layer_1" xmlns="http://www.w3.org/2000/svg" xmlns:xlink="http://www.w3.org/1999/xlink" x="0px" y="0px"
	 width="100%" viewBox="0 0 936 936" enable-background="new 0 0 936 936" xml:space="preserve">
<path fill="#F7F7EF" opacity="1.000000" stroke="none" 
	d="
M523.000000,937.000000 
	C348.666656,937.000000 174.833328,937.000000 1.000000,937.000000 
	C1.000000,625.000000 1.000000,313.000000 1.000000,1.000000 
	C313.000000,1.000000 625.000000,1.000000 937.000000,1.000000 
	C937.000000,313.000000 937.000000,625.000000 937.000000,937.000000 
	C799.166687,937.000000 661.333313,937.000000 523.000000,937.000000 
M300.205536,488.841614 
	C292.711121,524.612427 299.101593,558.326416 315.438477,590.503296 
	C333.833649,626.734192 359.095642,657.695312 388.715851,685.250610 
	C406.338318,701.644653 425.140472,716.424072 446.757507,727.349243 
	C458.774231,733.422363 470.968628,735.600220 483.710266,729.861816 
	C487.652252,728.086426 491.581116,726.229980 495.329285,724.084473 
	C523.208618,708.125977 547.032104,687.221863 568.778687,663.769714 
	C590.536865,640.305115 609.124451,614.693787 623.201050,585.830688 
	C640.393005,550.579651 643.939453,514.234924 632.847900,476.590668 
	C627.443359,458.247894 618.139954,442.266754 602.444275,430.808777 
	C583.362061,416.878601 561.734741,415.401917 539.443848,419.561310 
	C519.949036,423.198975 504.756805,434.342346 492.018036,449.060822 
	C485.810303,456.233276 480.069336,463.812836 473.790527,470.919617 
	C468.925446,476.426270 467.195068,476.304565 462.251465,470.707245 
	C458.177795,466.094879 454.299835,461.294495 450.558075,456.406769 
	C430.163544,429.766327 404.271759,414.847046 369.707977,417.938263 
	C354.308868,419.315430 340.521820,424.532837 328.907990,434.784302 
	C312.848846,448.959656 304.849335,467.562958 300.205536,488.841614 
M173.658478,785.500000 
	C173.658569,660.845154 173.663498,536.190308 173.629547,411.535461 
	C173.628723,408.554535 173.456680,405.524445 172.909744,402.602386 
	C171.432877,394.712189 162.917923,390.413879 155.599289,393.664001 
	C149.304062,396.459717 147.932419,401.648926 147.935669,407.996979 
	C148.005722,544.817871 147.987213,681.638733 147.989822,818.459656 
	C147.990067,831.192810 151.937714,835.121277 164.722107,835.121399 
	C367.037048,835.123413 569.351990,835.123352 771.666931,835.121338 
	C784.531250,835.121216 788.757019,830.918701 788.757141,818.136536 
	C788.758850,681.982239 788.758728,545.827942 788.753174,409.673645 
	C788.753113,407.842224 788.869324,405.981934 788.601929,404.184113 
	C787.014771,393.513519 776.145386,389.308350 767.519165,395.728729 
	C762.851562,399.202789 763.130615,403.944000 763.130127,408.738861 
	C763.115845,540.226929 763.118469,671.714966 763.118286,803.203003 
	C763.118286,805.301880 763.118286,807.400696 763.118286,809.677002 
	C566.337097,809.677002 370.281433,809.677002 173.657745,809.677002 
	C173.657745,801.746765 173.657745,794.123352 173.658478,785.500000 
M640.692810,224.835190 
	C586.086243,185.237091 531.485229,145.631287 476.865387,106.051559 
	C470.686951,101.574402 465.792877,101.598495 459.522675,106.131767 
	C431.849731,126.138985 404.199799,146.178116 376.553894,166.222733 
	C297.392273,223.618744 218.233994,281.019440 139.080826,338.427124 
	C122.900047,350.162628 106.738594,361.924896 90.587585,373.701385 
	C86.457489,376.712891 84.578423,380.897278 85.389549,385.899567 
	C86.190834,390.841187 89.107254,394.340118 93.935287,396.090332 
	C99.144623,397.978729 103.388603,395.741302 107.384804,392.843384 
	C226.305298,306.606018 345.221252,220.362381 464.064270,134.018326 
	C467.193878,131.744522 469.255127,131.653244 472.322540,133.955688 
	C483.245239,142.154480 494.365997,150.089691 505.422913,158.109299 
	C588.213196,218.157104 671.004150,278.204010 753.799500,338.244812 
	C779.285767,356.726715 804.775146,375.204468 830.289307,393.647827 
	C835.946289,397.737061 841.712830,397.765900 846.408630,393.940643 
	C853.580750,388.098206 852.712952,378.474762 844.376953,372.430084 
	C776.690857,323.348663 708.990967,274.286224 640.692810,224.835190 
z"/>
<path fill="#6E9BC7" opacity="1.000000" stroke="none" 
	d="
M300.323914,488.435486 
	C304.849335,467.562958 312.848846,448.959656 328.907990,434.784302 
	C340.521820,424.532837 354.308868,419.315430 369.707977,417.938263 
	C404.271759,414.847046 430.163544,429.766327 450.558075,456.406769 
	C454.299835,461.294495 458.177795,466.094879 462.251465,470.707245 
	C467.195068,476.304565 468.925446,476.426270 473.790527,470.919617 
	C480.069336,463.812836 485.810303,456.233276 492.018036,449.060822 
	C504.756805,434.342346 519.949036,423.198975 539.443848,419.561310 
	C561.734741,415.401917 583.362061,416.878601 602.444275,430.808777 
	C618.139954,442.266754 627.443359,458.247894 632.847900,476.590668 
	C643.939453,514.234924 640.393005,550.579651 623.201050,585.830688 
	C609.124451,614.693787 590.536865,640.305115 568.778687,663.769714 
	C547.032104,687.221863 523.208618,708.125977 495.329285,724.084473 
	C491.581116,726.229980 487.652252,728.086426 483.710266,729.861816 
	C470.968628,735.600220 458.774231,733.422363 446.757507,727.349243 
	C425.140472,716.424072 406.338318,701.644653 388.715851,685.250610 
	C359.095642,657.695312 333.833649,626.734192 315.438477,590.503296 
	C299.101593,558.326416 292.711121,524.612427 300.323914,488.435486 
z"/>
<path fill="#6F9CC7" opacity="1.000000" stroke="none" 
	d="
M173.658112,786.000000 
	C173.657745,794.123352 173.657745,801.746765 173.657745,809.677002 
	C370.281433,809.677002 566.337097,809.677002 763.118286,809.677002 
	C763.118286,807.400696 763.118286,805.301880 763.118286,803.203003 
	C763.118469,671.714966 763.115845,540.226929 763.130127,408.738861 
	C763.130615,403.944000 762.851562,399.202789 767.519165,395.728729 
	C776.145386,389.308350 787.014771,393.513519 788.601929,404.184113 
	C788.869324,405.981934 788.753113,407.842224 788.753174,409.673645 
	C788.758728,545.827942 788.758850,681.982239 788.757141,818.136536 
	C788.757019,830.918701 784.531250,835.121216 771.666931,835.121338 
	C569.351990,835.123352 367.037048,835.123413 164.722107,835.121399 
	C151.937714,835.121277 147.990067,831.192810 147.989822,818.459656 
	C147.987213,681.638733 148.005722,544.817871 147.935669,407.996979 
	C147.932419,401.648926 149.304062,396.459717 155.599289,393.664001 
	C162.917923,390.413879 171.432877,394.712189 172.909744,402.602386 
	C173.456680,405.524445 173.628723,408.554535 173.629547,411.535461 
	C173.663498,536.190308 173.658569,660.845154 173.658112,786.000000 
z"/>
<path fill="#709CC7" opacity="1.000000" stroke="none" 
	d="
M640.994019,225.026596 
	C708.990967,274.286224 776.690857,323.348663 844.376953,372.430084 
	C852.712952,378.474762 853.580750,388.098206 846.408630,393.940643 
	C841.712830,397.765900 835.946289,397.737061 830.289307,393.647827 
	C804.775146,375.204468 779.285767,356.726715 753.799500,338.244812 
	C671.004150,278.204010 588.213196,218.157104 505.422913,158.109299 
	C494.365997,150.089691 483.245239,142.154480 472.322540,133.955688 
	C469.255127,131.653244 467.193878,131.744522 464.064270,134.018326 
	C345.221252,220.362381 226.305298,306.606018 107.384804,392.843384 
	C103.388603,395.741302 99.144623,397.978729 93.935287,396.090332 
	C89.107254,394.340118 86.190834,390.841187 85.389549,385.899567 
	C84.578423,380.897278 86.457489,376.712891 90.587585,373.701385 
	C106.738594,361.924896 122.900047,350.162628 139.080826,338.427124 
	C218.233994,281.019440 297.392273,223.618744 376.553894,166.222733 
	C404.199799,146.178116 431.849731,126.138985 459.522675,106.131767 
	C465.792877,101.598495 470.686951,101.574402 476.865387,106.051559 
	C531.485229,145.631287 586.086243,185.237091 640.994019,225.026596 
z"/>
</svg>